# xmcd
#
# Track frame offsets:
#	150
#	11515
#	22920
#	35528
#	47160
#	59328
#	73875
#	85910
#	102955
#	113988
#	126300
#	139755
#	154383
#	167603
#	179530
#	193088
#
# Disc length: 2773 seconds
#
# Revision: 1
# Processed by: cddbd v1.5.1PL2 Copyright (c) Steve Scherf et al.
# Submitted via: audiograbber 1.83.01
#
DISCID=e20ad310
DTITLE=Slavko Avsenik - Gold - Folge 2
DYEAR=1900
DGENRE=Country
TTITLE0=Auf den Bergeshöhn
TTITLE1=Fahrt ins Blaue
TTITLE2=Du hast wirklich Recht
TTITLE3=Wisch Wasch Polka
TTITLE4=Nimm der Zeit und komm mit mir
TTITLE5=Mit meiner Gitarre in die Welt
TTITLE6=Bald kommen wir wieder
TTITLE7=Zigeunerin
TTITLE8=Ein Küsschen für jeden
TTITLE9=Freude an Musik mit Avsenik
TTITLE10=Verliebt - Verlobt - Verheiratet
TTITLE11=Rosenmontagswalzer
TTITLE12=Die kleine Eisenbahn
TTITLE13=Gitarrenecho
TTITLE14=Ausflug mit meiner Freundin
TTITLE15=Im Garten der Natur
EXTD=
EXTT0=
EXTT1=
EXTT2=
EXTT3=
EXTT4=
EXTT5=
EXTT6=
EXTT7=
EXTT8=
EXTT9=
EXTT10=
EXTT11=
EXTT12=
EXTT13=
EXTT14=
EXTT15=
PLAYORDER=
